<?xml version="1.0" encoding="iso-8859-1"?>
<!-- Generator: Adobe Illustrator 19.0.0, SVG Export Plug-In . SVG Version: 6.00 Build 0)  -->
<svg version="1.1" id="Layer_1" xmlns="http://www.w3.org/2000/svg" xmlns:xlink="http://www.w3.org/1999/xlink" x="0px" y="0px"
	 viewBox="0 0 512 512" style="enable-background:new 0 0 512 512;" xml:space="preserve">
<ellipse style="fill:#95D5A7;" cx="256" cy="379.374" rx="246.747" ry="104.867"/>
<path style="fill:#80CB93;" d="M256,274.506c-12.58,0-24.939,0.403-37.012,1.174c118.716,7.59,209.735,51.122,209.735,103.693
	s-91.019,96.103-209.735,103.693c12.073,0.772,24.432,1.174,37.012,1.174c136.275,0,246.747-46.951,246.747-104.867
	S392.275,274.506,256,274.506z"/>
<polygon style="fill:#98C8ED;" points="194.313,64.771 194.313,40.096 107.952,40.096 107.952,126.458 194.313,126.458 
	194.313,151.133 280.675,151.133 280.675,64.771 "/>
<circle style="fill:#EDEDED;" cx="336.193" cy="367.036" r="18.506"/>
<rect x="194.313" y="64.771" style="fill:#7AB9E8;" width="49.349" height="86.361"/>
<g>
	<path style="fill:#2E2D31;" d="M446.466,302.346c-39.592-19.382-93.88-32.133-152.863-35.904c-5.124-0.323-9.497,3.546-9.824,8.644
		c-0.327,5.1,3.543,9.499,8.644,9.824c56.622,3.62,108.44,15.714,145.908,34.056c35.572,17.417,55.164,38.87,55.164,60.407
		c0,23.715-24.287,47.638-66.636,65.637C381.371,464.342,320.692,474.988,256,474.988c-47.655,0-93.721-5.854-133.216-16.929
		c-4.928-1.378-10.029,1.492-11.408,6.412c-1.379,4.92,1.49,10.028,6.41,11.407c41.099,11.526,88.893,17.616,138.214,17.616
		c143.551,0,256-50.128,256-114.12C512,350.391,488.727,323.035,446.466,302.346z"/>
	<path style="fill:#2E2D31;" d="M117.205,373.205v-70.93c40.281-12.033,88.316-18.516,138.795-18.516
		c5.111,0,9.253-4.143,9.253-9.253c0-5.11-4.142-9.253-9.253-9.253c-51.527,0-99.045,6.459-138.795,17.699V135.711h67.855v15.422
		c0,5.11,4.142,9.253,9.253,9.253h86.361c5.111,0,9.253-4.143,9.253-9.253V64.771c0-5.11-4.142-9.253-9.253-9.253h-77.108V40.096
		c0-5.11-4.142-9.253-9.253-9.253h-77.108v-3.084c0-5.11-4.142-9.253-9.253-9.253c-5.111,0-9.253,4.143-9.253,9.253v260.969
		C38.293,309.423,0,342.036,0,379.374c0,32.386,28.313,62.016,79.724,83.434c1.162,0.484,2.368,0.714,3.554,0.714
		c3.625,0,7.064-2.143,8.545-5.697c1.967-4.718-0.265-10.134-4.983-12.1c-43.427-18.091-68.334-42.275-68.334-66.35
		c0-23.715,24.289-47.638,66.636-65.637c4.38-1.862,8.904-3.641,13.556-5.34v64.808c0,5.11,4.142,9.253,9.253,9.253
		C113.063,382.458,117.205,378.315,117.205,373.205z M271.422,74.024v67.855h-67.855V74.024H271.422z M185.06,49.349v67.855h-67.855
		V49.349H185.06z"/>
	<path style="fill:#2E2D31;" d="M363.952,367.036c0-15.307-12.453-27.759-27.759-27.759s-27.759,12.452-27.759,27.759
		c0,15.307,12.453,27.759,27.759,27.759S363.952,382.343,363.952,367.036z M326.94,367.036c0-5.103,4.15-9.253,9.253-9.253
		s9.253,4.15,9.253,9.253c0,5.103-4.15,9.253-9.253,9.253S326.94,372.139,326.94,367.036z"/>
</g>
<g>
</g>
<g>
</g>
<g>
</g>
<g>
</g>
<g>
</g>
<g>
</g>
<g>
</g>
<g>
</g>
<g>
</g>
<g>
</g>
<g>
</g>
<g>
</g>
<g>
</g>
<g>
</g>
<g>
</g>
</svg>
